<?xml version="1.0" encoding="utf-8"?>
<!-- Generator: Adobe Illustrator 23.0.1, SVG Export Plug-In . SVG Version: 6.00 Build 0)  -->
<svg version="1.1" id="Layer_1" xmlns="http://www.w3.org/2000/svg" xmlns:xlink="http://www.w3.org/1999/xlink" x="0px" y="0px"
	 viewBox="0 0 389.2 241" style="enable-background:new 0 0 389.2 241;" xml:space="preserve">
<style type="text/css">
	.st0{clip-path:url(#SVGID_2_);}
</style>
<g>
	<defs>
		<rect id="SVGID_1_" width="389.2" height="241"/>
	</defs>
	<clipPath id="SVGID_2_">
		<use xlink:href="#SVGID_1_"  style="overflow:visible;"/>
	</clipPath>
	<path class="st0" d="M1.2,41.4c0-12.6,10.3-22.8,23-22.8c8.1,0,15.3,4.2,19.4,10.4L33,36.5c-1.8-3.3-4.9-5.5-8.8-5.5
		c-5.5,0-9.5,4.2-9.5,10.3c0,6.1,4.1,10.3,9.5,10.3c3.9,0,7-2.2,8.8-5.5l10.6,7.5C39.5,60,32.4,64.2,24.2,64.2
		C11.5,64.2,1.2,53.9,1.2,41.4"/>
	<path class="st0" d="M70.5,31.6c-2.7,0-5.9,1.1-8,2.9v28.9H49.1V19.3h13.3v3.9c2.5-3.1,5.7-4.6,10.1-4.6c1.4,0,3.1,0.2,4.8,0.7
		v13.9C75.3,32.1,72.8,31.6,70.5,31.6"/>
	<path class="st0" d="M80.4,41.4c0-13,9.2-22.8,22.8-22.8c11.2,0,21.3,7.3,21.3,21.3c0,1.2-0.1,2.6-0.3,3.9h-31
		c0.7,5.9,5.7,8.2,9.6,8.2c4.7,0,7.7-2.3,9.5-5.6l10.6,7.2c-4.1,6.4-11.2,10.6-20,10.6C91.3,64.2,80.4,55,80.4,41.4 M111.4,36
		l-0.1-0.5c-0.9-4.3-4.7-6.2-8.8-6.2c-3.2,0-7.8,1.4-9,6.7H111.4z"/>
	<path class="st0" d="M150.4,64.2c-13.1,0-21.4-10.7-21.4-22.8s8.3-22.8,21.4-22.8c3.6,0,7.2,1.2,9.7,3.4v-2.7h13.3v44.2h-13.3v-2.7
		C157.6,62.9,154.1,64.2,150.4,64.2 M160.2,48.3V34.5c-1.8-2.4-4.2-3.7-7.5-3.7c-6.4,0-10.2,4.8-10.2,10.6S146.3,52,152.7,52
		C155.9,52,158.4,50.6,160.2,48.3"/>
	<path class="st0" d="M185.5,49.9V30.9h-5.7l-2.9-11.7h8.7v-6.6L198.9,6v13.3h14l-2.9,11.7h-11v15.1c0,3.7,1.5,5.2,5.1,5.2h7.2v12.2
		h-12.2C190.8,63.5,185.5,58.3,185.5,49.9"/>
	<path class="st0" d="M225.5,0c4.4,0,8,3.5,8,8c0,1.9-0.6,3.7-1.8,5h-12.4c-1.1-1.3-1.8-3.1-1.8-5C217.5,3.5,221.1,0,225.5,0
		 M218.8,19.3h13.4v44.2h-13.4V19.3z"/>
	<polygon class="st0" points="271.4,19.3 286.7,19.3 261,64.2 235.3,19.3 250.7,19.3 261,38.5 	"/>
	<path class="st0" d="M284.5,41.4c0-13,9.2-22.8,22.8-22.8c11.2,0,21.3,7.3,21.3,21.3c0,1.2-0.1,2.6-0.3,3.9h-31
		c0.7,5.9,5.7,8.2,9.6,8.2c4.7,0,7.7-2.3,9.5-5.6l10.6,7.2c-4.1,6.4-11.2,10.6-20,10.6C295.4,64.2,284.5,55,284.5,41.4 M315.5,36
		l-0.1-0.5c-0.9-4.3-4.7-6.2-8.8-6.2c-3.2,0-7.8,1.4-9,6.7H315.5z"/>
	<path class="st0" d="M10.5,88.4c4.4,0,8,3.5,8,8c0,1.9-0.6,3.7-1.8,5H4.3c-1.1-1.3-1.8-3.1-1.8-5C2.6,91.9,6.1,88.4,10.5,88.4
		 M3.8,107.7h13.4v44.2H3.8V107.7z"/>
	<path class="st0" d="M48.2,119.2c-2.6,0-5.7,1.3-8,3.8v28.9H26.9v-44.2h13.3v2.7c2.7-2.1,6.3-3.4,10.2-3.4
		c12.5,0,19.3,8.3,19.3,20.2v24.7H56.3v-22.3C56.3,123.7,54,119.2,48.2,119.2"/>
	<path class="st0" d="M97.8,152.6c-13.1,0-21.4-10.7-21.4-22.8c0-12.1,8.3-22.8,21.4-22.8c3.6,0,7.2,1.2,9.7,3.4V89.1h13.3v62.8
		h-13.3v-2.7C105,151.3,101.5,152.6,97.8,152.6 M107.6,136.7v-13.8c-1.8-2.4-4.2-3.7-7.5-3.7c-6.4,0-10.2,4.8-10.2,10.6
		s3.8,10.6,10.2,10.6C103.3,140.4,105.8,139,107.6,136.7"/>
	<path class="st0" d="M159.5,148.6c-2.7,2.5-6.8,4-10.5,4c-11.9,0-18.9-8.2-18.9-20.2v-24.7h13.3v22.3c0,6,2.5,10.4,7.8,10.4
		c3.3,0,6.5-1.6,8.3-4.5v-28.2h13.3v44.2h-13.3V148.6z"/>
	<path class="st0" d="M195.5,152.6c-7.7,0-14-2.7-17.8-9.4l10.2-6.9c1.8,3.2,4.2,5.4,8.1,5.4c1.9,0,3.4-0.4,3.4-2
		c0-1.7-1.2-2.2-5.6-3.9l-2.3-0.9c-7.7-3-11.7-8-11.7-14.2c0-8.1,6.7-13.7,15.2-13.7c5.7,0,10.6,2.1,14,7l-7.6,7.5
		c-1.7-2.4-3.6-4-6.4-4c-1.8,0-3.2,0.6-3.2,2c0,1.8,1.4,2.3,5.8,4l1.9,0.7c8.4,3.2,11.8,7.8,11.8,14.3
		C211.5,147.5,204.5,152.6,195.5,152.6"/>
	<path class="st0" d="M220.7,138.2v-18.9H215l-2.9-11.7h8.7V101l13.3-6.6v13.3h14l-2.9,11.7h-11v15.1c0,3.7,1.5,5.2,5.1,5.2h7.2
		v12.2h-12.2C225.9,151.9,220.7,146.6,220.7,138.2"/>
	<path class="st0" d="M275.3,120c-2.7,0-5.9,1.1-8,2.9v28.9h-13.3v-44.2h13.3v3.9c2.5-3.1,5.7-4.6,10.1-4.6c1.4,0,3.1,0.2,4.8,0.7
		v13.9C280.1,120.5,277.6,120,275.3,120"/>
	<path class="st0" d="M294.5,88.4c4.4,0,8,3.5,8,8c0,1.9-0.6,3.7-1.8,5h-12.4c-1.1-1.3-1.8-3.1-1.8-5
		C286.6,91.9,290.1,88.4,294.5,88.4 M287.8,107.7h13.4v44.2h-13.4V107.7z"/>
	<path class="st0" d="M308.3,129.8c0-13,9.2-22.8,22.8-22.8c11.2,0,21.3,7.3,21.3,21.3c0,1.2-0.1,2.6-0.3,3.9h-31
		c0.7,5.9,5.7,8.2,9.6,8.2c4.7,0,7.7-2.3,9.5-5.6l10.6,7.2c-4.1,6.4-11.2,10.6-20,10.6C319.2,152.6,308.3,143.4,308.3,129.8
		 M339.2,124.4l-0.1-0.5c-0.9-4.3-4.7-6.2-8.8-6.2c-3.2,0-7.8,1.4-9,6.7H339.2z"/>
	<path class="st0" d="M373.2,152.6c-7.7,0-14-2.7-17.8-9.4l10.2-6.9c1.8,3.2,4.2,5.4,8.1,5.4c1.9,0,3.4-0.4,3.4-2
		c0-1.7-1.2-2.2-5.6-3.9l-2.3-0.9c-7.7-3-11.7-8-11.7-14.2c0-8.1,6.7-13.7,15.2-13.7c5.7,0,10.6,2.1,14,7l-7.6,7.5
		c-1.7-2.4-3.6-4-6.4-4c-1.8,0-3.2,0.6-3.2,2c0,1.8,1.4,2.3,5.8,4l1.9,0.7c8.4,3.2,11.8,7.8,11.8,14.3
		C389.2,147.5,382.2,152.6,373.2,152.6"/>
	<path class="st0" d="M5.7,207.7H0v-11.7h6.5c-1.7-1.9-2.7-4.5-2.7-7.3c0-6.3,4.6-11.2,11.9-11.2h13.7v11.7h-8.7
		c-3.1,0-4.3,1.5-4.3,3.4c0,1.9,1.5,3.4,3.4,3.4h9.5v11.7H19.1v32.5H5.7V207.7z"/>
	<path class="st0" d="M64,237c-2.7,2.5-6.8,4-10.5,4c-11.9,0-18.9-8.2-18.9-20.2v-24.7h13.3v22.3c0,6,2.5,10.4,7.8,10.4
		c3.3,0,6.5-1.6,8.3-4.5v-28.2h13.3v44.2H64V237z"/>
	<path class="st0" d="M108.3,207.5c-2.6,0-5.7,1.3-8,3.8v28.9H87v-44.2h13.3v2.7c2.7-2.1,6.3-3.4,10.2-3.4
		c12.5,0,19.3,8.3,19.3,20.2v24.7h-13.3V218C116.4,212.1,114.1,207.5,108.3,207.5"/>
	<path class="st0" d="M158,241c-13.1,0-21.4-10.7-21.4-22.8c0-12.1,8.3-22.8,21.4-22.8c3.6,0,7.2,1.2,9.7,3.4v-21.2H181v62.8h-13.3
		v-2.7C165.1,239.7,161.6,241,158,241 M167.7,225v-13.8c-1.8-2.4-4.2-3.7-7.5-3.7c-6.4,0-10.2,4.8-10.2,10.6
		c0,5.8,3.8,10.6,10.2,10.6C163.4,228.8,165.9,227.4,167.7,225"/>
	<polygon class="st0" points="263.8,241 224.2,207.5 224.2,240.3 210,240.3 210,176.8 249.6,210.3 249.6,177.5 263.8,177.5 	"/>
	<polygon class="st0" points="274.8,177.5 289,177.5 289,226.2 313.4,226.2 313.4,240.3 274.8,240.3 	"/>
</g>
</svg>
